<svg width="642" height="396" viewBox="0 0 642 396" fill="none" xmlns="http://www.w3.org/2000/svg">
<path d="M509.992 206.364C509.997 231.226 505.104 255.845 495.592 278.815C486.08 301.785 472.136 322.657 454.556 340.237C436.976 357.816 416.105 371.76 393.135 381.272C370.165 390.784 345.546 395.677 320.684 395.672C216.133 395.672 131.376 310.915 131.376 206.364C131.358 186.028 134.618 165.821 141.031 146.522C153.621 108.831 177.741 76.0515 209.98 52.8186C242.219 29.5858 280.946 17.0754 320.684 17.0565C354.956 17.0446 388.587 26.3396 417.989 43.9493C447.39 61.559 471.458 86.8224 487.622 117.043C491.63 124.499 495.126 132.218 498.087 140.149C498.497 141.253 498.897 142.357 499.286 143.472V143.483C501.021 148.383 502.55 153.376 503.871 158.459C507.948 174.101 510.005 190.2 509.992 206.364Z" fill="#3F3D56"/>
<path d="M299.972 78.6406C291.465 74.0401 282.019 71.443 272.355 71.0477C262.692 70.6523 253.065 72.469 244.211 76.3593C236.414 79.7523 228.205 85.839 225.604 96.8304C236.123 90.6225 249.74 100.431 252.446 116.166L251.815 116.34C250.385 127.239 253.576 139.104 259.755 145.862C260.567 138.843 265.182 134.065 269.722 131.081C274.262 128.097 279.284 125.929 282.749 120.799C286.857 114.718 287.9 105.83 289.532 97.7222C291.164 89.6143 294.26 80.8999 299.972 78.6406Z" fill="white"/>
<path d="M241.091 171.384C238.177 175.759 234.286 178.505 230.794 181.923C227.313 185.351 224 189.979 223.306 195.921C222.864 199.728 223.548 203.598 223.453 207.448C223.359 211.297 222.076 215.63 219.457 216.587C215.324 218.08 212.168 210.403 207.92 209.867C204.544 209.446 201.504 214.757 202.482 219.364C203.46 223.97 208.056 226.01 210.696 223.002C213.084 227.009 211.401 234.277 207.814 235.507C207.436 238.031 207.057 240.545 206.689 243.069C197.623 236.727 188.463 230.28 180.754 220.994C172.18 210.753 166.862 198.184 165.483 184.899C164.484 174.224 165.967 162.014 161.066 153.8C157.143 147.227 150.412 145.775 144.354 146.186C143.25 146.259 142.135 146.385 141.031 146.522C144.603 135.792 149.141 125.408 154.587 115.497C155.82 114.968 156.965 114.255 157.984 113.383C163.622 108.597 166.125 98.9111 170.7 92.2117C170.994 91.7804 171.299 91.3598 171.615 90.9497C176.295 84.8392 182.563 81.6945 188.621 78.7707C202.03 72.2607 215.828 65.6665 229.985 66.5709L225.957 66.9601C221.255 80.1275 216.551 93.2949 211.843 106.462C211.127 108.482 210.405 110.504 209.676 112.531C207.005 120.019 204.249 127.991 204.659 136.373C204.901 141.337 206.626 146.638 209.907 148.341C212.968 149.919 216.312 147.984 219.267 146.07C220.519 145.27 221.76 144.471 223.012 143.661C227.502 140.769 232.477 137.803 237.22 139.738C241.564 141.505 244.771 147.405 245.382 153.768C245.941 159.953 244.432 166.149 241.091 171.384Z" fill="white"/>
<path d="M267.8 261.282C254.684 253.206 241.568 245.131 228.452 237.055L228.675 236.482C220.52 239.588 217.134 254.083 218.482 265.938C219.829 277.792 224.399 288.389 226.708 299.94C229.821 315.746 228.646 332.098 223.305 347.297C240.552 327.946 255.815 306.914 268.865 284.517C270.689 281.694 272.078 278.614 272.987 275.379C273.82 271.937 273.692 267.799 272.023 265.039C270.949 263.455 269.498 262.164 267.8 261.282Z" fill="white"/>
<path d="M216.036 114.363C214.643 117.494 214.107 121.67 215.371 124.91C216.662 128.219 219.39 129.714 221.903 130.959L229.15 134.551C231.561 135.746 234.16 136.953 236.617 135.97C239.582 134.784 241.637 130.137 241.105 125.822C240.54 121.231 237.646 118.073 234.969 115.384C231.224 111.62 227.478 107.857 223.732 104.093L221.622 106.678C219.338 108.905 217.45 111.504 216.036 114.363Z" fill="white"/>
<path d="M471.142 163.444C474.402 164.212 477.663 164.979 480.923 165.747C480.355 176.759 474.896 186.95 467.577 190.641C464.527 192.177 461.13 192.745 458.605 195.616C456.323 198.224 455.166 202.284 454.104 206.164C452.243 212.938 450.381 219.711 448.52 226.483C446.521 233.782 443.955 241.891 438.76 244.52C434.3 246.782 429.2 244.016 425.771 239.377C422.342 234.739 420.25 228.503 418.22 222.424C418.346 229.05 415.265 235.549 410.9 237.853C406.525 240.156 401.203 238.073 398.279 232.931C396.176 229.239 395.303 224.37 393.242 220.626C391.18 216.882 386.858 214.736 384.607 218.249C383.124 220.584 383.313 224.159 382.577 227.125C381.431 231.732 377.96 234.624 374.521 234.876C371.093 235.129 367.748 233.151 364.877 230.47C358.956 224.916 354.591 216.103 352.898 206.312C352.151 201.947 351.941 197.193 353.235 193.102C354.528 189.011 357.652 185.856 360.754 186.634C362.795 182.322 358.767 176.601 355.138 177.106C351.499 177.611 348.649 181.512 345.662 184.51C342.686 187.507 338.521 189.684 335.524 186.708C335.545 189.474 333.294 191.304 331.348 191.072C329.413 190.852 327.689 189.295 325.911 188.191C319.044 183.91 310.325 186.75 305.445 194.848C308.495 181.87 312.965 166.978 322.335 163.928C326.164 162.676 330.339 163.707 333.957 161.54C340.362 157.702 341.655 143.199 336.123 137.214C336.828 142.872 336.691 149.477 333.704 153.348C330.717 157.218 324.449 154.694 324.828 148.972C323.965 152.916 319.675 153.516 317.697 150.487C315.71 147.458 315.878 142.504 317.287 138.886C318.696 135.269 321.094 132.671 323.418 130.178C328.414 124.825 333.483 119.409 339.268 116.043C345.063 112.678 351.752 111.542 357.557 114.886C360.618 116.653 363.31 119.598 366.434 121.155C369.557 122.722 373.522 122.522 375.594 118.862C377.918 114.781 376.824 108.723 377.687 103.623C379.233 94.6094 388.246 90.3921 393.242 96.3447C389.508 95.3877 385.648 99.8048 385.185 105.158C384.712 110.511 387.415 115.917 391.033 117.537C397.112 120.229 403.065 113.456 407.661 107.188C412.456 100.625 417.259 94.0661 422.069 87.5104C422.837 86.3942 423.699 85.3457 424.646 84.3763C426.152 82.908 428.16 82.0672 430.264 82.0242C432.367 81.9813 434.408 82.7394 435.973 84.145C440.832 88.1098 443.114 96.2397 447.1 101.835C452.884 109.964 461.54 111.942 469.596 113.519C475.601 114.687 481.61 115.861 487.622 117.043C491.63 124.499 495.126 132.218 498.087 140.149C487.906 144.471 478.514 152.559 471.142 163.444Z" fill="white"/>
<path d="M490.556 289.986C486.051 299.135 480.81 307.904 474.886 316.205C471.1 314.585 467.03 317.478 463.485 320.191C459.783 323.031 455.335 325.797 451.538 323.21C447.657 320.559 446.406 313.145 447.636 307.266C448.867 301.397 451.938 296.727 454.914 292.289C458.069 287.578 461.445 282.687 465.831 280.857C470.227 279.027 475.874 281.614 477.158 287.861L480.271 287.756C478.525 285.358 479.44 280.394 481.785 279.521C484.488 278.501 486.833 282.214 488.432 285.495C489.147 286.978 489.873 288.471 490.556 289.986Z" fill="white"/>
<path d="M371.329 245.563C364.637 245.983 359.337 237.746 355.815 229.642C352.293 221.539 349.079 212.271 343.042 208.147C339.592 205.79 335.659 205.466 331.917 204.324C328.175 203.182 324.258 200.819 322.469 196.006L318.225 194.291C312.619 197.443 306.939 200.653 302.109 205.782C296.692 211.537 293.317 218.914 292.506 226.776C291.696 235.272 294.69 244.745 300.284 247.937C304.705 250.459 309.852 248.869 314.329 251.178C319.924 254.062 323.245 262.442 324.503 270.715C325.76 278.988 325.441 287.586 326.341 295.953C327.241 304.32 329.72 313.027 334.85 317.314C341.271 322.68 350.692 318.221 353.572 308.454C354.985 303.663 354.936 298.257 355.993 293.283C357.854 284.525 362.876 278.027 366.859 270.842C370.842 263.658 373.978 253.9 371.329 245.563Z" fill="white"/>
<path d="M305.208 159.499C305.832 160.074 306.414 160.692 306.951 161.349C307.506 162.306 307.789 163.396 307.77 164.502C307.751 165.608 307.431 166.688 306.844 167.625C307.65 167.579 308.437 167.367 309.157 167.001C309.877 166.635 310.513 166.124 311.025 165.5C312.246 164.109 313.32 162.596 314.231 160.984C314.913 159.871 315.639 158.367 315.176 157.045C314.86 156.143 314.112 155.758 313.588 155.079C312.758 154.004 312.552 152.296 312.122 150.82C311.193 147.632 308.969 145.288 306.555 144.953L306.89 145.017C305.882 145.363 305.177 146.964 305.4 148.405C305.603 149.718 306.447 150.807 306.363 152.146C306.242 154.071 304.319 154.974 304.2 156.899C304.181 157.865 304.543 158.799 305.208 159.499Z" fill="white"/>
<path d="M293.744 126.791C293.754 126.788 293.764 126.788 293.774 126.785C293.979 126.598 294.17 126.394 294.344 126.177L293.744 126.791Z" fill="#E6E6E6"/>
<path d="M295.75 135.826C297.23 134.874 298.056 132.243 297.567 130.041C297.081 127.852 295.36 126.381 293.774 126.785C293.313 127.252 292.742 127.594 292.113 127.779C291.484 127.964 290.818 127.986 290.179 127.844C289.197 127.591 288.12 126.941 287.27 127.68C286.783 128.232 286.442 128.897 286.279 129.615C285.964 130.581 285.649 131.548 285.334 132.515C285.184 132.861 285.145 133.245 285.222 133.614C285.282 133.762 285.38 133.892 285.505 133.991C285.63 134.091 285.778 134.156 285.936 134.182C287.826 134.739 289.715 135.296 291.605 135.853C292.982 136.259 294.469 136.65 295.75 135.826Z" fill="white"/>
<path d="M438.406 260.557C437.533 259.127 436.659 257.697 435.786 256.267C434.928 254.611 433.755 253.138 432.333 251.931C432.02 251.669 431.658 251.473 431.268 251.353C430.878 251.233 430.469 251.192 430.063 251.232C429.657 251.273 429.263 251.394 428.905 251.589C428.547 251.784 428.231 252.049 427.977 252.368L428.083 253.185C430.074 255.683 432.181 258.458 432.686 262.165C432.885 263.626 432.815 265.139 432.99 266.607C433.165 268.075 433.661 269.597 434.608 270.23C435.984 271.149 437.599 269.794 438.578 268.141C439.453 266.783 439.846 265.17 439.692 263.562C439.474 262.483 439.036 261.46 438.406 260.557Z" fill="white"/>
<path d="M477.282 205.94C477.534 204.283 477.787 202.627 478.04 200.97C478.45 199.151 478.501 197.268 478.19 195.429C478.119 195.028 477.969 194.644 477.748 194.301C477.527 193.958 477.24 193.663 476.903 193.433C476.567 193.203 476.187 193.042 475.788 192.96C475.388 192.879 474.976 192.878 474.576 192.958L474.132 193.651C474.046 196.845 473.871 200.324 471.87 203.486C471.081 204.732 470.054 205.845 469.242 207.08C468.431 208.316 467.83 209.8 468.147 210.894C468.608 212.483 470.716 212.486 472.53 211.852C474.073 211.377 475.412 210.396 476.331 209.067C476.859 208.101 477.182 207.036 477.282 205.94Z" fill="#E6E6E6"/>
<path d="M452.109 262.419C452.536 261.191 451.92 259.783 451.789 258.426C451.727 256.673 452.191 254.942 453.123 253.457C454.049 252.055 454.75 250.518 455.201 248.9C455.392 248.163 455.357 247.386 455.102 246.669C454.813 246.019 454.112 245.723 453.711 246.238L454.57 246.791C453.409 246.584 452.217 246.642 451.082 246.96C450.434 247.208 449.855 247.608 449.395 248.127C448.935 248.646 448.607 249.268 448.438 249.941C448.296 250.989 448.064 252.024 447.744 253.033C447.231 254.087 446.239 254.438 445.615 255.363C445.19 256.183 444.975 257.096 444.99 258.02C445.006 258.944 445.25 259.849 445.703 260.655C446.486 261.972 447.731 262.952 449.197 263.402C450.246 263.779 451.629 263.799 452.109 262.419Z" fill="white"/>
<path d="M476.511 269.781C476.891 270.769 477.399 271.702 478.023 272.556C479.191 273.733 480.779 273.01 482.196 272.724C483.482 272.521 484.8 272.669 486.008 273.154C487.216 273.639 488.271 274.441 489.06 275.477C488.511 272.736 487.311 270.167 485.563 267.985C483.814 265.804 481.568 264.074 479.012 262.94C475.671 261.578 472.152 261.447 468.678 261.324L468.078 261.478C469.607 265.93 474.409 265.83 476.511 269.781Z" fill="white"/>
<path d="M373.159 278.886L373.168 278.905C373.226 278.793 373.284 278.681 373.342 278.569L373.159 278.886Z" fill="#E6E6E6"/>
<path d="M369.457 286.052C368.65 287.517 367.955 289.042 367.38 290.614C366.619 293.159 366.114 295.774 365.875 298.42C365.687 299.925 365.629 301.846 366.571 302.579C366.842 302.759 367.169 302.834 367.491 302.79C367.813 302.746 368.108 302.587 368.321 302.342C368.844 301.788 369.273 301.151 369.589 300.457C371.441 297.266 372.879 293.852 373.869 290.298C374.771 286.554 374.762 282.147 373.168 278.905C371.931 281.288 370.694 283.67 369.457 286.052Z" fill="white"/>
<path d="M333.745 95.1493C334.333 95.7241 335.076 96.1142 335.883 96.2718C336.69 96.4293 337.526 96.3472 338.287 96.0358C339.863 95.3468 341.308 94.3918 342.56 93.2128C343.597 92.4456 344.477 91.4861 345.151 90.3865C345.523 89.7295 345.761 89.0055 345.852 88.2562C345.943 87.5069 345.885 86.747 345.681 86.0201C345.096 84.3084 343.611 83.7346 342.301 83.3461C340.203 82.7241 338.106 82.1021 336.008 81.4802L337.525 80.1126C335.964 79.2748 334.237 80.8297 333.262 82.7547C332.636 84.0116 332.2 85.3543 331.967 86.739C331.445 89.7605 331.956 93.3585 333.745 95.1493Z" fill="#E6E6E6"/>
<path d="M370.775 82.7178C371.366 83.3696 372.183 83.7719 373.06 83.8433C373.937 83.9146 374.809 83.6496 375.497 83.102C376.09 82.6568 376.583 82.0916 376.942 81.4435C377.302 80.7953 377.522 80.0785 377.586 79.3399C377.734 77.6901 376.919 75.8563 375.754 75.7139L376.02 74.1692C373.776 73.7639 371.014 73.6827 369.811 76.4082C369.406 77.4523 369.281 78.5845 369.45 79.6917C369.619 80.799 370.076 81.8425 370.775 82.7178Z" fill="#E6E6E6"/>
<path d="M365.828 0.574018C352.671 -0.910178 339.462 2.89329 329.109 11.1477C318.756 19.4021 312.105 31.4313 310.621 44.5889C307.53 71.9884 321.965 131.487 348.283 156.117C360.675 108.928 404.098 80.9382 409.843 55.7813C415.983 28.9003 393.228 3.6647 365.828 0.574018Z" fill="#6C63FF"/>
<path d="M356.728 61.4858C365.721 61.4858 373.011 54.196 373.011 45.2034C373.011 36.2109 365.721 28.921 356.728 28.921C347.736 28.921 340.446 36.2109 340.446 45.2034C340.446 54.196 347.736 61.4858 356.728 61.4858Z" fill="white"/>
<path d="M339.608 179.594C345.498 179.594 350.273 174.819 350.273 168.929C350.273 163.039 345.498 158.265 339.608 158.265C333.718 158.265 328.943 163.039 328.943 168.929C328.943 174.819 333.718 179.594 339.608 179.594Z" fill="#6C63FF"/>
<path d="M370.2 33.5379C372.033 34.6392 373.631 36.0907 374.903 37.8095C376.175 39.5284 377.095 41.4809 377.613 43.5556C378.13 45.6303 378.233 47.7865 377.917 49.9012C377.601 52.0159 376.872 54.0477 375.77 55.8804C374.669 57.7132 373.218 59.3111 371.499 60.5829C369.78 61.8547 367.827 62.7755 365.753 63.2928C361.563 64.3374 357.129 63.6747 353.428 61.4505C357.202 62.29 361.151 61.7591 364.57 59.9526C367.988 58.1462 370.652 55.1823 372.084 51.5913C373.517 48.0003 373.624 44.0166 372.388 40.3534C371.152 36.6902 368.653 33.5865 365.337 31.5978C367.052 31.9779 368.694 32.6331 370.2 33.5379Z" fill="#231F20"/>
<path d="M409.907 55.8339C404.161 80.9907 360.738 108.981 348.347 156.17C345.872 153.831 343.573 151.313 341.469 148.635C355.394 104.279 396.114 77.3261 401.665 53.02C406.634 31.2656 392.677 10.591 372.651 1.85745C396.893 7.95142 415.533 31.2 409.907 55.8339Z" fill="#231F20"/>
<path d="M213.246 64.1056C203.365 62.991 193.446 65.8473 185.671 72.046C177.895 78.2448 172.901 87.2783 171.787 97.1592C169.466 117.735 180.306 162.417 200.07 180.913C209.375 145.476 241.984 124.456 246.299 105.564C250.91 85.3776 233.822 66.4266 213.246 64.1056Z" fill="#6C63FF"/>
<path d="M206.412 109.848C213.165 109.848 218.639 104.374 218.639 97.6207C218.639 90.8676 213.165 85.3932 206.412 85.3932C199.659 85.3932 194.184 90.8676 194.184 97.6207C194.184 104.374 199.659 109.848 206.412 109.848Z" fill="white"/>
<path d="M193.555 198.543C197.978 198.543 201.564 194.958 201.564 190.535C201.564 186.112 197.978 182.526 193.555 182.526C189.132 182.526 185.546 186.112 185.546 190.535C185.546 194.958 189.132 198.543 193.555 198.543Z" fill="#6C63FF"/>
<path d="M216.529 88.8603C217.905 89.6873 219.105 90.7774 220.06 92.0682C221.015 93.3589 221.707 94.8252 222.095 96.3832C222.484 97.9413 222.561 99.5605 222.324 101.149C222.087 102.737 221.539 104.262 220.712 105.639C219.885 107.015 218.795 108.215 217.504 109.17C216.213 110.125 214.747 110.817 213.189 111.205C211.631 111.594 210.011 111.671 208.423 111.434C206.835 111.197 205.31 110.649 203.933 109.822C206.767 110.452 209.733 110.053 212.3 108.697C214.867 107.34 216.868 105.114 217.943 102.418C219.019 99.721 219.1 96.7295 218.172 93.9785C217.243 91.2276 215.366 88.8968 212.877 87.4033C214.165 87.6888 215.398 88.1808 216.529 88.8603Z" fill="#231F20"/>
<path d="M246.347 105.604C242.032 124.496 209.423 145.515 200.117 180.953C198.259 179.196 196.532 177.305 194.953 175.294C205.41 141.984 235.989 121.744 240.158 103.491C243.889 87.1539 233.408 71.628 218.369 65.0694C236.574 69.6457 250.572 87.1046 246.347 105.604Z" fill="#231F20"/>
<path d="M517.722 56.7598C514.197 55.3605 510.431 54.6693 506.639 54.7255C502.847 54.7817 499.103 55.5843 495.621 57.0875C492.138 58.5906 488.987 60.7649 486.345 63.4862C483.703 66.2075 481.623 69.4224 480.224 72.9475C474.339 87.7725 473.364 123.176 484.315 140.919C498.396 116.46 526.884 107.428 533.91 94.2582C541.418 80.1854 532.547 62.6446 517.722 56.7598Z" fill="#6C63FF"/>
<path d="M505.867 89.709C511.069 89.709 515.286 85.492 515.286 80.2901C515.286 75.0882 511.069 70.8712 505.867 70.8712C500.665 70.8712 496.448 75.0882 496.448 80.2901C496.448 85.492 500.665 89.709 505.867 89.709Z" fill="white"/>
<path d="M477.528 152.923C480.935 152.923 483.697 150.161 483.697 146.754C483.697 143.347 480.935 140.585 477.528 140.585C474.121 140.585 471.359 143.347 471.359 146.754C471.359 150.161 474.121 152.923 477.528 152.923Z" fill="#6C63FF"/>
<path d="M515.158 75.8237C516.884 77.6277 517.823 80.043 517.768 82.5387C517.714 85.0345 516.671 87.4067 514.869 89.134C513.067 90.8613 510.653 91.8025 508.157 91.7508C505.661 91.699 503.288 90.6586 501.559 88.8581C503.538 89.8996 505.823 90.2028 508.005 89.7134C510.187 89.224 512.124 87.9739 513.469 86.1869C514.814 84.4 515.479 82.1927 515.345 79.9603C515.211 77.7278 514.287 75.6159 512.738 74.0025C513.638 74.475 514.455 75.0901 515.158 75.8237Z" fill="#231F20"/>
<path d="M533.938 94.2972C526.911 107.467 498.424 116.499 484.343 140.958C483.316 139.277 482.415 137.522 481.648 135.708C496.154 113.063 522.976 104.2 529.764 91.4753C535.84 80.0864 531.189 66.4273 521.336 58.5119C533.942 65.5938 540.818 81.4008 533.938 94.2972Z" fill="#231F20"/>
<path d="M570.186 314C559.942 314 548.713 313.594 536.501 312.781C473.334 308.573 391.514 293.942 306.113 271.585C220.712 249.227 141.932 221.813 84.2865 194.394C56.2056 181.037 34.6537 168.393 20.2301 156.814C4.95927 144.555 -1.7204 133.87 0.375856 125.056C4.46034 107.884 40.6264 104.128 70.2469 104L70.2569 106.497C29.5802 106.672 5.58304 113.478 2.68561 125.66C-1.00523 141.176 29.0956 165.399 85.2694 192.119C142.788 219.478 221.423 246.84 306.689 269.162C391.955 291.484 473.624 306.09 536.652 310.289C598.204 314.391 635.624 307.844 639.315 292.328C642.379 279.445 622.179 260.468 582.436 238.89L583.53 236.672C612.407 252.351 645.928 274.839 641.625 292.933C639.528 301.747 628.846 307.886 609.876 311.181C599.062 313.059 585.78 314 570.186 314Z" fill="#6C63FF"/>
</svg>
