<svg width="276" height="52" viewBox="0 0 276 52" fill="none" xmlns="http://www.w3.org/2000/svg">
<path d="M0.954546 51V0.0909076H15.8693C18.7197 0.0909076 21.2386 0.728928 23.4261 2.00497C25.6302 3.28101 27.3537 5.03764 28.5966 7.27486C29.8561 9.51207 30.4858 12.089 30.4858 15.0057C30.4858 17.8892 29.8561 20.4496 28.5966 22.6868C27.3537 24.9074 25.6302 26.6558 23.4261 27.9318C21.2386 29.1913 18.7197 29.821 15.8693 29.821H1.75V28.2301H15.8693C18.4214 28.2301 20.6752 27.6667 22.6307 26.5398C24.5862 25.4129 26.1191 23.8551 27.2294 21.8665C28.3397 19.8778 28.8949 17.5909 28.8949 15.0057C28.8949 12.4039 28.3397 10.1004 27.2294 8.09517C26.1191 6.08996 24.5862 4.52391 22.6307 3.39702C20.6752 2.25355 18.4214 1.68182 15.8693 1.68182H2.54545V51H0.954546ZM43.8034 0.0909076V51H42.2125V0.0909076H43.8034ZM66.8654 51.7955C64.7773 51.7955 62.8467 51.3646 61.0735 50.5028C59.3169 49.6411 57.9 48.3816 56.8228 46.7244C55.7622 45.0672 55.2319 43.0455 55.2319 40.6591C55.2319 39.3665 55.439 38.1567 55.8533 37.0298C56.2676 35.8864 56.9968 34.8506 58.0408 33.9226C59.0849 32.9946 60.5432 32.1991 62.4158 31.5362C64.305 30.8733 66.7163 30.3679 69.6495 30.0199C71.4061 29.821 73.0633 29.589 74.6211 29.3239C76.1789 29.0587 77.4466 28.661 78.4244 28.1307C79.4021 27.6004 79.891 26.8381 79.891 25.8438V23.5568C79.891 20.6236 78.9049 18.2704 76.9329 16.4972C74.9608 14.7074 72.3342 13.8125 69.0529 13.8125C66.3683 13.8125 64.0233 14.4091 62.0181 15.6023C60.0129 16.7789 58.6126 18.4361 57.8171 20.5739L56.3256 19.9773C56.9222 18.3864 57.842 17.0109 59.0849 15.8509C60.3278 14.6908 61.8027 13.7959 63.5096 13.1662C65.2165 12.5365 67.0643 12.2216 69.0529 12.2216C70.9918 12.2216 72.7236 12.5116 74.2482 13.0916C75.7894 13.6551 77.0986 14.4505 78.1758 15.478C79.253 16.4889 80.0733 17.6821 80.6367 19.0575C81.2002 20.433 81.4819 21.9328 81.4819 23.5568V51H79.891V43.2443H79.6921C78.8967 44.9678 77.8609 46.4759 76.5849 47.7685C75.3254 49.0445 73.8671 50.0388 72.2099 50.7514C70.5692 51.4474 68.7878 51.7955 66.8654 51.7955ZM66.8654 50.2045C69.2849 50.2045 71.4807 49.5582 73.4528 48.2656C75.4248 46.9564 76.9909 45.1418 78.1509 42.8217C79.311 40.4851 79.891 37.7756 79.891 34.6932V28.9261C79.427 29.2741 78.8635 29.5807 78.2006 29.8459C77.5543 30.111 76.8169 30.3513 75.9883 30.5668C75.1763 30.7656 74.2897 30.9396 73.3285 31.0888C72.3673 31.2379 71.3398 31.3788 70.2461 31.5114C66.8323 31.9091 64.1476 32.514 62.1921 33.326C60.2366 34.138 58.8529 35.1572 58.0408 36.3835C57.2288 37.6098 56.8228 39.035 56.8228 40.6591C56.8228 43.5426 57.784 45.8544 59.7063 47.5945C61.6452 49.3345 64.0316 50.2045 66.8654 50.2045ZM96.782 25.3466V51H95.1911V12.8182H96.782V18.8835H96.9808C97.8757 16.8949 99.3423 15.304 101.381 14.1108C103.436 12.9176 105.781 12.321 108.415 12.321C110.968 12.321 113.221 12.8762 115.177 13.9865C117.132 15.0968 118.665 16.6297 119.776 18.5852C120.886 20.5407 121.441 22.7945 121.441 25.3466V51H119.85V25.3466C119.85 21.9659 118.79 19.215 116.668 17.0938C114.547 14.9725 111.796 13.9119 108.415 13.9119C106.162 13.9119 104.156 14.4008 102.4 15.3785C100.66 16.3563 99.2843 17.7069 98.2734 19.4304C97.2791 21.1539 96.782 23.1259 96.782 25.3466ZM149.294 51.7955C145.963 51.7955 143.047 50.9254 140.544 49.1854C138.059 47.4453 136.128 45.0838 134.752 42.1009C133.377 39.1179 132.689 35.7538 132.689 32.0085C132.689 28.2633 133.377 24.8991 134.752 21.9162C136.145 18.9332 138.034 16.5717 140.42 14.8317C142.806 13.0916 145.499 12.2216 148.499 12.2216C150.72 12.2216 152.775 12.6939 154.664 13.6385C156.569 14.5831 158.227 15.8923 159.635 17.5661C161.044 19.2398 162.138 21.1705 162.917 23.358C163.712 25.5289 164.11 27.849 164.11 30.3182V31.9091H133.485V30.3182H162.519C162.519 27.2524 161.889 24.4766 160.63 21.9908C159.37 19.4884 157.68 17.4998 155.559 16.0249C153.437 14.55 151.084 13.8125 148.499 13.8125C145.881 13.8125 143.511 14.5914 141.39 16.1491C139.268 17.7069 137.57 19.8281 136.294 22.5128C135.018 25.1974 134.346 28.2301 134.28 31.6108V31.8097C134.28 35.1406 134.86 38.2064 136.02 41.0071C137.197 43.7912 138.904 46.0201 141.141 47.6939C143.378 49.3677 146.096 50.2045 149.294 50.2045C151.648 50.2045 153.62 49.7902 155.211 48.9616C156.818 48.133 158.102 47.1802 159.064 46.103C160.041 45.0258 160.762 44.1061 161.226 43.3438L162.519 44.2386C161.955 45.1998 161.11 46.2687 159.983 47.4453C158.856 48.6219 157.415 49.6411 155.658 50.5028C153.901 51.3646 151.78 51.7955 149.294 51.7955ZM187.308 12.8182V14.4091H172.195V12.8182H187.308ZM177.763 3.67045H179.354V42.946C179.354 44.4375 179.685 45.7218 180.348 46.799C181.011 47.8596 181.889 48.6799 182.983 49.2599C184.077 49.8234 185.253 50.1051 186.513 50.1051C186.994 50.1051 187.433 50.0637 187.83 49.9808C188.245 49.898 188.667 49.7737 189.098 49.608L189.595 51.0994C189.098 51.2817 188.609 51.4226 188.129 51.522C187.648 51.638 187.11 51.696 186.513 51.696C184.955 51.696 183.505 51.3397 182.163 50.6271C180.837 49.9145 179.768 48.9036 178.956 47.5945C178.161 46.2853 177.763 44.7358 177.763 42.946V3.67045ZM209.258 51.7955C207.17 51.7955 205.239 51.3646 203.466 50.5028C201.709 49.6411 200.293 48.3816 199.215 46.7244C198.155 45.0672 197.624 43.0455 197.624 40.6591C197.624 39.3665 197.832 38.1567 198.246 37.0298C198.66 35.8864 199.389 34.8506 200.433 33.9226C201.477 32.9946 202.936 32.1991 204.808 31.5362C206.698 30.8733 209.109 30.3679 212.042 30.0199C213.799 29.821 215.456 29.589 217.014 29.3239C218.571 29.0587 219.839 28.661 220.817 28.1307C221.795 27.6004 222.284 26.8381 222.284 25.8438V23.5568C222.284 20.6236 221.298 18.2704 219.325 16.4972C217.353 14.7074 214.727 13.8125 211.445 13.8125C208.761 13.8125 206.416 14.4091 204.411 15.6023C202.405 16.7789 201.005 18.4361 200.21 20.5739L198.718 19.9773C199.315 18.3864 200.235 17.0109 201.477 15.8509C202.72 14.6908 204.195 13.7959 205.902 13.1662C207.609 12.5365 209.457 12.2216 211.445 12.2216C213.384 12.2216 215.116 12.5116 216.641 13.0916C218.182 13.6551 219.491 14.4505 220.568 15.478C221.646 16.4889 222.466 17.6821 223.029 19.0575C223.593 20.433 223.874 21.9328 223.874 23.5568V51H222.284V43.2443H222.085C221.289 44.9678 220.253 46.4759 218.977 47.7685C217.718 49.0445 216.26 50.0388 214.602 50.7514C212.962 51.4474 211.18 51.7955 209.258 51.7955ZM209.258 50.2045C211.677 50.2045 213.873 49.5582 215.845 48.2656C217.817 46.9564 219.383 45.1418 220.544 42.8217C221.704 40.4851 222.284 37.7756 222.284 34.6932V28.9261C221.82 29.2741 221.256 29.5807 220.593 29.8459C219.947 30.111 219.209 30.3513 218.381 30.5668C217.569 30.7656 216.682 30.9396 215.721 31.0888C214.76 31.2379 213.732 31.3788 212.639 31.5114C209.225 31.9091 206.54 32.514 204.585 33.326C202.629 34.138 201.245 35.1572 200.433 36.3835C199.621 37.6098 199.215 39.035 199.215 40.6591C199.215 43.5426 200.177 45.8544 202.099 47.5945C204.038 49.3345 206.424 50.2045 209.258 50.2045ZM260.453 20.8722L258.862 21.2699C258.348 19.6127 257.627 18.2372 256.699 17.1435C255.788 16.0331 254.669 15.2045 253.344 14.6577C252.018 14.0942 250.477 13.8125 248.72 13.8125C245.671 13.8125 243.202 14.5914 241.312 16.1491C239.423 17.6903 238.479 19.7287 238.479 22.2642C238.479 24.2694 239.117 25.9515 240.393 27.3104C241.685 28.6693 243.632 29.6719 246.234 30.3182L252.2 31.8097C255.001 32.5057 257.122 33.6823 258.564 35.3395C260.022 36.9967 260.751 39.0019 260.751 41.3551C260.751 43.4266 260.204 45.2495 259.111 46.8239C258.033 48.3982 256.542 49.6245 254.636 50.5028C252.73 51.3646 250.526 51.7955 248.024 51.7955C244.627 51.7955 241.851 50.9669 239.697 49.3097C237.542 47.6525 236.142 45.2992 235.496 42.25L237.086 41.8523C237.65 44.5535 238.851 46.625 240.691 48.0668C242.547 49.492 244.991 50.2045 248.024 50.2045C251.338 50.2045 254.023 49.3925 256.078 47.7685C258.133 46.1444 259.16 44.0066 259.16 41.3551C259.16 39.383 258.547 37.7176 257.321 36.3587C256.095 34.9998 254.255 34.0137 251.802 33.4006L245.836 31.9091C242.903 31.1799 240.674 29.9867 239.15 28.3295C237.642 26.6723 236.888 24.6506 236.888 22.2642C236.888 20.259 237.385 18.5107 238.379 17.0192C239.39 15.5111 240.782 14.3345 242.555 13.4893C244.345 12.6442 246.4 12.2216 248.72 12.2216C251.67 12.2216 254.131 12.9508 256.103 14.4091C258.075 15.8509 259.525 18.0052 260.453 20.8722ZM274.193 51.2983C273.696 51.2983 273.273 51.1243 272.925 50.7763C272.577 50.4283 272.403 50.0057 272.403 49.5085C272.403 49.0114 272.577 48.5888 272.925 48.2408C273.273 47.8928 273.696 47.7188 274.193 47.7188C274.69 47.7188 275.113 47.8928 275.461 48.2408C275.809 48.5888 275.983 49.0114 275.983 49.5085C275.983 49.84 275.9 50.1465 275.734 50.4283C275.585 50.6934 275.37 50.9006 275.088 51.0497C274.823 51.2154 274.525 51.2983 274.193 51.2983Z" fill="white"/>
</svg>
